<?xml version="1.0" standalone="no"?>
<!DOCTYPE svg PUBLIC "-//W3C//DTD SVG 20010904//EN"
 "http://www.w3.org/TR/2001/REC-SVG-20010904/DTD/svg10.dtd">
<svg version="1.0" xmlns="http://www.w3.org/2000/svg"
 width="512.000000pt" height="512.000000pt" viewBox="0 0 512.000000 512.000000"
 preserveAspectRatio="xMidYMid meet">
<metadata>
Created by potrace 1.14, written by Peter Selinger 2001-2017
</metadata>
<g transform="translate(0.000000,512.000000) scale(0.100000,-0.100000)"
fill="#000000" stroke="none">
<path d="M2150 3715 l0 -45 -90 0 -90 0 0 -45 0 -45 -95 0 -95 0 0 -50 0 -50
-89 0 -90 0 -3 -42 -3 -43 -87 -3 -88 -3 0 -39 0 -40 -45 0 -45 0 0 -95 0 -95
45 0 45 0 0 -45 0 -45 -95 0 -95 0 0 45 0 45 -45 0 -45 0 0 -45 0 -45 -45 0
-45 0 0 -95 0 -95 -45 0 -45 0 0 -85 0 -85 -45 0 -45 0 0 -95 0 -95 -45 0 -45
0 0 -185 0 -185 45 0 45 0 0 -90 0 -90 45 0 45 0 0 -45 0 -45 45 0 45 0 0 -45
0 -45 90 0 90 0 0 -50 0 -50 95 0 95 0 0 -180 0 -179 88 -3 87 -3 3 -42 3 -43
45 0 44 0 0 -45 0 -45 45 0 45 0 0 45 0 45 45 0 45 0 0 90 0 90 50 0 50 0 0
-45 0 -45 45 0 45 0 0 -45 0 -45 45 0 45 0 0 45 0 45 44 0 45 0 3 43 3 42 503
3 502 2 0 -90 0 -90 45 0 45 0 0 -45 0 -45 44 0 45 0 3 42 3 43 88 3 87 3 0
44 0 45 45 0 45 0 0 180 0 180 50 0 50 0 0 50 0 50 45 0 45 0 0 45 0 45 45 0
45 0 0 45 0 45 45 0 c25 0 45 3 45 8 1 4 1 188 2 410 l1 402 44 0 43 0 0 45 0
45 45 0 45 0 0 45 0 45 45 0 45 0 0 50 0 50 50 0 50 0 0 45 0 45 45 0 46 0 -3
93 -3 92 -42 3 c-43 3 -43 3 -43 42 l0 39 -47 3 -48 3 -3 43 -3 42 -130 0
c-78 0 -129 -4 -130 -10 -1 -5 -3 -14 -4 -20 -1 -5 -3 -21 -4 -35 l-1 -25
-135 0 -135 0 0 -40 0 -40 -550 0 -550 0 0 40 0 40 -45 0 -45 0 0 45 0 45 -50
0 -50 0 0 50 0 50 -45 0 -45 0 0 45 0 45 -45 0 -45 0 0 45 0 45 -90 0 -90 0 0
-45z m180 -90 l0 -45 45 0 45 0 0 -50 0 -50 45 0 45 0 0 -45 0 -45 50 0 50 0
0 -45 0 -45 45 0 45 0 0 -45 0 -45 455 0 455 0 0 -45 0 -45 45 0 45 0 0 45 0
45 50 0 50 0 0 45 0 44 138 3 137 3 3 43 3 42 85 0 84 0 0 -39 c0 -40 0 -40
-42 -43 l-43 -3 -3 -47 -3 -48 -45 0 -44 0 0 -45 0 -45 -45 0 -45 0 0 -45 0
-45 50 0 50 0 0 45 0 45 45 0 45 0 0 45 0 45 40 0 40 0 0 45 c0 42 2 45 28 45
15 0 57 3 95 7 l67 6 0 -97 0 -96 -50 0 -50 0 0 -45 0 -45 -45 0 -45 0 0 -50
0 -50 -45 0 -45 0 0 -45 0 -45 -45 0 -45 0 0 -40 0 -40 -45 0 -45 0 0 -45 0
-45 -45 0 -45 0 0 -50 0 -50 39 0 c26 0 41 -5 45 -16 3 -9 6 -153 6 -320 l0
-304 -45 0 -45 0 0 -45 0 -45 -45 0 -45 0 0 -45 0 -45 -50 0 -50 0 0 135 0
135 50 0 50 0 0 90 0 90 -50 0 -50 0 0 -84 0 -85 -42 -3 -43 -3 -3 -367 -2
-368 -43 0 -42 0 3 667 c1 368 0 678 -3 691 -5 21 -10 22 -95 22 l-90 0 0 40
0 39 138 3 137 3 3 43 3 42 135 0 134 0 0 45 0 45 -140 0 -140 0 0 -45 0 -45
-85 0 -85 0 0 45 0 45 40 0 40 0 0 50 0 50 -45 0 -45 0 0 -50 0 -50 -44 0 -45
0 -3 -42 c-3 -43 -3 -43 -45 -46 -43 -3 -43 -3 -43 -43 l0 -39 -640 0 -640 0
0 40 0 40 -50 0 -50 0 0 -40 0 -40 -45 0 -45 0 0 39 c0 40 0 40 -42 43 -43 3
-43 3 -46 46 l-3 42 -44 0 c-47 0 -55 -9 -55 -61 l0 -29 -91 0 -92 0 4 -317 4
-318 -92 -3 -93 -3 0 -44 0 -45 95 0 95 0 0 -180 0 -180 -95 0 -95 0 0 45 0
45 -90 0 -90 0 0 45 0 45 -45 0 -44 0 -3 93 c-3 101 4 92 -70 96 -16 1 -18 17
-18 181 l0 180 45 0 45 0 0 90 0 90 45 0 45 0 0 90 0 90 45 0 45 0 0 95 0 95
45 0 45 0 0 -50 0 -50 185 0 185 0 0 50 0 50 -45 0 -45 0 0 45 0 45 -45 0 -45
0 0 90 0 89 88 3 87 3 3 43 3 42 90 0 89 0 0 45 0 45 95 0 95 0 0 50 0 50 90
0 90 0 0 45 0 45 90 0 90 0 0 -45z m-640 -825 l0 -40 -45 0 -45 0 0 40 0 40
45 0 45 0 0 -40z m-98 -92 l3 -43 93 -3 92 -3 0 -589 0 -590 -95 0 -95 0 0
-50 0 -50 -40 0 -40 0 0 685 0 685 39 0 c40 0 40 0 43 -42z m1568 -638 l0
-590 -645 0 -645 0 0 590 0 590 645 0 645 0 0 -590z m172 543 l3 -48 48 3 47
4 0 -596 0 -596 -45 0 -45 0 0 50 0 50 -45 0 -45 0 0 590 0 590 39 0 40 0 3
-47z"/>
<path d="M2510 3165 l0 -45 -90 0 -90 0 0 -45 0 -45 -90 0 -90 0 0 -50 0 -50
-90 0 -90 0 0 -45 0 -45 90 0 90 0 0 45 0 45 90 0 90 0 0 50 0 50 90 0 90 0 0
45 0 45 95 0 95 0 0 45 0 45 -95 0 -95 0 0 -45z"/>
<path d="M3520 3075 l0 -45 45 0 45 0 0 45 0 45 -45 0 -45 0 0 -45z"/>
<path d="M3890 2980 l0 -50 45 0 45 0 0 50 0 50 -45 0 -45 0 0 -50z"/>
<path d="M1230 2525 l0 -45 50 0 50 0 0 45 0 45 -50 0 -50 0 0 -45z"/>
<path d="M3800 2385 l0 -185 45 0 45 0 0 185 0 185 -45 0 -45 0 0 -185z"/>
<path d="M590 2980 l0 -50 50 0 50 0 0 -46 0 -45 43 3 c42 3 42 3 45 46 l3 42
-45 0 -46 0 0 50 0 50 -50 0 -50 0 0 -50z"/>
<path d="M500 2710 l0 -40 95 0 95 0 0 40 0 40 -95 0 -95 0 0 -40z"/>
<path d="M590 2525 l0 -45 -45 0 -45 0 0 -45 0 -45 45 0 45 0 0 45 0 45 50 0
50 0 0 45 0 45 -50 0 -50 0 0 -45z"/>
</g>
</svg>
